<mxfile host="65bd71144e">
    <diagram id="25Z5gKblpwdOd3teljbO" name="第 1 页">
        <mxGraphModel dx="868" dy="713" grid="1" gridSize="10" guides="1" tooltips="1" connect="1" arrows="1" fold="1" page="1" pageScale="1" pageWidth="827" pageHeight="1169" math="0" shadow="0">
            <root>
                <mxCell id="0"/>
                <mxCell id="1" parent="0"/>
                <mxCell id="2" value="&lt;font style=&quot;font-size: 30px&quot;&gt;parallel system&lt;/font&gt;" style="rounded=0;whiteSpace=wrap;html=1;" parent="1" vertex="1">
                    <mxGeometry x="240" y="110" width="230" height="60" as="geometry"/>
                </mxCell>
                <mxCell id="8" style="edgeStyle=none;html=1;fontSize=18;" parent="1" source="6" edge="1">
                    <mxGeometry relative="1" as="geometry">
                        <mxPoint x="355" y="170" as="targetPoint"/>
                    </mxGeometry>
                </mxCell>
                <mxCell id="9" style="edgeStyle=none;html=1;exitX=1;exitY=0;exitDx=0;exitDy=0;fontSize=18;" parent="1" source="6" edge="1">
                    <mxGeometry relative="1" as="geometry">
                        <mxPoint x="105" y="240" as="targetPoint"/>
                    </mxGeometry>
                </mxCell>
                <mxCell id="10" style="edgeStyle=none;html=1;exitX=0;exitY=0;exitDx=0;exitDy=0;fontSize=18;" parent="1" source="6" edge="1">
                    <mxGeometry relative="1" as="geometry">
                        <mxPoint x="605" y="240" as="targetPoint"/>
                    </mxGeometry>
                </mxCell>
                <mxCell id="16" style="edgeStyle=none;html=1;exitX=0.5;exitY=1;exitDx=0;exitDy=0;fontSize=18;" parent="1" source="6" edge="1">
                    <mxGeometry relative="1" as="geometry">
                        <mxPoint x="355" y="240" as="targetPoint"/>
                    </mxGeometry>
                </mxCell>
                <mxCell id="6" value="" style="shape=partialRectangle;whiteSpace=wrap;html=1;bottom=1;right=1;left=1;top=0;fillColor=none;routingCenterX=-0.5;fontSize=18;rotation=-180;" parent="1" vertex="1">
                    <mxGeometry x="105" y="200" width="500" height="20" as="geometry"/>
                </mxCell>
                <mxCell id="13" value="Scene 1" style="shape=ext;double=1;rounded=0;whiteSpace=wrap;html=1;fontSize=18;" parent="1" vertex="1">
                    <mxGeometry x="290" y="240" width="130" height="40" as="geometry"/>
                </mxCell>
                <mxCell id="18" value="&lt;font style=&quot;font-size: 16px&quot;&gt;Fire System(1,0)&lt;/font&gt;" style="shape=ext;double=1;rounded=0;whiteSpace=wrap;html=1;fontSize=18;" parent="1" vertex="1">
                    <mxGeometry x="130" y="330" width="130" height="40" as="geometry"/>
                </mxCell>
                <mxCell id="19" value="Scene 0&amp;nbsp;" style="shape=ext;double=1;rounded=0;whiteSpace=wrap;html=1;fontSize=18;" parent="1" vertex="1">
                    <mxGeometry x="40" y="240" width="130" height="40" as="geometry"/>
                </mxCell>
                <mxCell id="20" value="Scene n-1" style="shape=ext;double=1;rounded=0;whiteSpace=wrap;html=1;fontSize=18;" parent="1" vertex="1">
                    <mxGeometry x="540" y="240" width="130" height="40" as="geometry"/>
                </mxCell>
                <mxCell id="26" style="edgeStyle=none;html=1;exitX=0.5;exitY=1;exitDx=0;exitDy=0;entryX=0.5;entryY=1;entryDx=0;entryDy=0;fontSize=18;" parent="1" source="23" target="13" edge="1">
                    <mxGeometry relative="1" as="geometry"/>
                </mxCell>
                <mxCell id="38" style="edgeStyle=none;html=1;exitX=0.5;exitY=1;exitDx=0;exitDy=0;entryX=0.5;entryY=1;entryDx=0;entryDy=0;fontSize=30;" parent="1" source="23" target="13" edge="1">
                    <mxGeometry relative="1" as="geometry"/>
                </mxCell>
                <mxCell id="23" value="" style="shape=partialRectangle;whiteSpace=wrap;html=1;bottom=1;right=1;left=1;top=0;fillColor=none;routingCenterX=-0.5;fontSize=18;rotation=-180;" parent="1" vertex="1">
                    <mxGeometry x="205" y="300" width="300" height="30" as="geometry"/>
                </mxCell>
                <mxCell id="27" style="edgeStyle=none;html=1;exitX=0.5;exitY=1;exitDx=0;exitDy=0;entryX=0.5;entryY=0;entryDx=0;entryDy=0;fontSize=18;" parent="1" source="23" target="23" edge="1">
                    <mxGeometry relative="1" as="geometry"/>
                </mxCell>
                <mxCell id="28" style="edgeStyle=none;html=1;exitX=1;exitY=0.25;exitDx=0;exitDy=0;entryX=1;entryY=0;entryDx=0;entryDy=0;fontSize=18;" parent="1" source="23" target="23" edge="1">
                    <mxGeometry relative="1" as="geometry"/>
                </mxCell>
                <mxCell id="29" style="edgeStyle=none;html=1;exitX=0;exitY=0.5;exitDx=0;exitDy=0;entryX=0;entryY=0;entryDx=0;entryDy=0;fontSize=18;" parent="1" source="23" target="23" edge="1">
                    <mxGeometry relative="1" as="geometry"/>
                </mxCell>
                <mxCell id="32" value="&lt;font style=&quot;font-size: 16px&quot;&gt;Fire System(1,n-1)&lt;/font&gt;" style="shape=ext;double=1;rounded=0;whiteSpace=wrap;html=1;fontSize=18;" parent="1" vertex="1">
                    <mxGeometry x="450" y="330" width="140" height="40" as="geometry"/>
                </mxCell>
                <mxCell id="34" value="&lt;font style=&quot;font-size: 16px&quot;&gt;Fire System(1,1)&lt;/font&gt;" style="shape=ext;double=1;rounded=0;whiteSpace=wrap;html=1;fontSize=18;" parent="1" vertex="1">
                    <mxGeometry x="290" y="330" width="130" height="40" as="geometry"/>
                </mxCell>
                <mxCell id="36" value="" style="edgeStyle=none;html=1;fontSize=30;" parent="1" source="35" target="34" edge="1">
                    <mxGeometry relative="1" as="geometry"/>
                </mxCell>
                <mxCell id="42" style="edgeStyle=none;html=1;exitX=0.5;exitY=1;exitDx=0;exitDy=0;fontSize=30;" parent="1" source="35" target="37" edge="1">
                    <mxGeometry relative="1" as="geometry"/>
                </mxCell>
                <mxCell id="35" value="" style="shape=partialRectangle;whiteSpace=wrap;html=1;bottom=1;right=1;left=1;top=0;fillColor=none;routingCenterX=-0.5;fontSize=30;rotation=-180;" parent="1" vertex="1">
                    <mxGeometry x="155" y="400" width="400" height="30" as="geometry"/>
                </mxCell>
                <mxCell id="37" value="&lt;div&gt;&lt;span&gt;&lt;font style=&quot;font-size: 16px&quot;&gt;Target 1&lt;/font&gt;&lt;/span&gt;&lt;/div&gt;" style="shape=ext;double=1;rounded=0;whiteSpace=wrap;html=1;fontSize=30;align=center;" parent="1" vertex="1">
                    <mxGeometry x="295" y="430" width="120" height="30" as="geometry"/>
                </mxCell>
                <mxCell id="43" value="&lt;span style=&quot;font-size: 16px&quot;&gt;Lanuch Car(4)&lt;/span&gt;" style="shape=ext;double=1;rounded=0;whiteSpace=wrap;html=1;fontSize=30;align=center;" parent="1" vertex="1">
                    <mxGeometry x="500" y="430" width="120" height="30" as="geometry"/>
                </mxCell>
                <mxCell id="44" value="&lt;div&gt;&lt;span&gt;&lt;font style=&quot;font-size: 16px&quot;&gt;Target 0&lt;/font&gt;&lt;/span&gt;&lt;/div&gt;" style="shape=ext;double=1;rounded=0;whiteSpace=wrap;html=1;fontSize=30;align=center;" parent="1" vertex="1">
                    <mxGeometry x="100" y="430" width="120" height="30" as="geometry"/>
                </mxCell>
                <mxCell id="64" value="" style="edgeStyle=none;html=1;fontSize=16;exitX=1;exitY=0.5;exitDx=0;exitDy=0;exitPerimeter=0;" parent="1" source="45" edge="1">
                    <mxGeometry relative="1" as="geometry">
                        <mxPoint x="355" y="630" as="targetPoint"/>
                    </mxGeometry>
                </mxCell>
                <mxCell id="45" value="" style="line;strokeWidth=2;direction=south;html=1;fontSize=16;" parent="1" vertex="1">
                    <mxGeometry x="350" y="461" width="10" height="160" as="geometry"/>
                </mxCell>
                <mxCell id="65" value="" style="edgeStyle=none;html=1;fontSize=16;" parent="1" target="43" edge="1">
                    <mxGeometry relative="1" as="geometry">
                        <mxPoint x="528.8" y="460" as="sourcePoint"/>
                    </mxGeometry>
                </mxCell>
                <mxCell id="69" value="" style="edgeStyle=segmentEdgeStyle;endArrow=classic;html=1;fontSize=16;exitX=0.617;exitY=0.599;exitDx=0;exitDy=0;exitPerimeter=0;" parent="1" source="45" edge="1">
                    <mxGeometry width="50" height="50" relative="1" as="geometry">
                        <mxPoint x="380" y="559" as="sourcePoint"/>
                        <mxPoint x="550" y="460" as="targetPoint"/>
                        <Array as="points">
                            <mxPoint x="550" y="560"/>
                            <mxPoint x="550" y="460"/>
                        </Array>
                    </mxGeometry>
                </mxCell>
                <mxCell id="75" value="Send" style="text;html=1;align=center;verticalAlign=middle;resizable=0;points=[];autosize=1;strokeColor=none;fillColor=none;fontSize=16;" parent="1" vertex="1">
                    <mxGeometry x="360" y="540" width="50" height="20" as="geometry"/>
                </mxCell>
                <mxCell id="78" value="" style="edgeStyle=segmentEdgeStyle;endArrow=classic;html=1;fontSize=16;" parent="1" edge="1">
                    <mxGeometry width="50" height="50" relative="1" as="geometry">
                        <mxPoint x="560" y="458" as="sourcePoint"/>
                        <mxPoint x="352" y="571" as="targetPoint"/>
                        <Array as="points">
                            <mxPoint x="560" y="458"/>
                            <mxPoint x="560" y="571"/>
                        </Array>
                    </mxGeometry>
                </mxCell>
                <mxCell id="81" value="Recive" style="text;html=1;align=center;verticalAlign=middle;resizable=0;points=[];autosize=1;strokeColor=none;fillColor=none;fontSize=16;" parent="1" vertex="1">
                    <mxGeometry x="355" y="570" width="60" height="20" as="geometry"/>
                </mxCell>
                <mxCell id="98" value="" style="shape=partialRectangle;whiteSpace=wrap;html=1;bottom=1;right=1;left=1;top=0;fillColor=none;routingCenterX=-0.5;fontSize=16;rotation=-90;" parent="1" vertex="1">
                    <mxGeometry x="287.5" y="527.87" width="548.96" height="292.57" as="geometry"/>
                </mxCell>
                <mxCell id="104" value="&lt;font style=&quot;font-size: 16px&quot;&gt;If T and M&amp;nbsp;&lt;br&gt;meet?&lt;/font&gt;" style="html=1;whiteSpace=wrap;aspect=fixed;shape=isoRectangle;" vertex="1" parent="1">
                    <mxGeometry x="286.83" y="768" width="136.68" height="82" as="geometry"/>
                </mxCell>
                <mxCell id="108" value="Lanuch judge" style="shape=ext;double=1;rounded=0;whiteSpace=wrap;html=1;fontSize=16;" vertex="1" parent="1">
                    <mxGeometry x="295" y="626.59" width="120" height="30" as="geometry"/>
                </mxCell>
                <mxCell id="109" value="" style="edgeStyle=segmentEdgeStyle;endArrow=classic;html=1;fontSize=16;exitX=0.617;exitY=0.599;exitDx=0;exitDy=0;exitPerimeter=0;entryX=0.75;entryY=1;entryDx=0;entryDy=0;" edge="1" parent="1">
                    <mxGeometry width="50" height="50" relative="1" as="geometry">
                        <mxPoint x="413" y="637.7200000000003" as="sourcePoint"/>
                        <mxPoint x="590" y="458" as="targetPoint"/>
                        <Array as="points">
                            <mxPoint x="590" y="638"/>
                        </Array>
                    </mxGeometry>
                </mxCell>
                <mxCell id="110" value="" style="edgeStyle=segmentEdgeStyle;endArrow=classic;html=1;fontSize=16;exitX=0.87;exitY=1;exitDx=0;exitDy=0;exitPerimeter=0;" edge="1" parent="1">
                    <mxGeometry width="50" height="50" relative="1" as="geometry">
                        <mxPoint x="604.4000000000001" y="456" as="sourcePoint"/>
                        <mxPoint x="413" y="648.9999999999998" as="targetPoint"/>
                        <Array as="points">
                            <mxPoint x="604" y="649"/>
                        </Array>
                    </mxGeometry>
                </mxCell>
                <mxCell id="111" value="Send Car_id" style="text;html=1;align=center;verticalAlign=middle;resizable=0;points=[];autosize=1;strokeColor=none;fillColor=none;fontSize=16;" vertex="1" parent="1">
                    <mxGeometry x="424" y="620" width="100" height="20" as="geometry"/>
                </mxCell>
                <mxCell id="112" value="Recive result&amp;nbsp;" style="text;html=1;align=center;verticalAlign=middle;resizable=0;points=[];autosize=1;strokeColor=none;fillColor=none;fontSize=16;" vertex="1" parent="1">
                    <mxGeometry x="420" y="648" width="110" height="20" as="geometry"/>
                </mxCell>
                <mxCell id="113" value="" style="line;strokeWidth=2;direction=south;html=1;fontSize=16;" vertex="1" parent="1">
                    <mxGeometry x="350" y="654" width="10" height="116" as="geometry"/>
                </mxCell>
                <mxCell id="115" value="True" style="text;html=1;align=center;verticalAlign=middle;resizable=0;points=[];autosize=1;strokeColor=none;fillColor=none;fontSize=16;" vertex="1" parent="1">
                    <mxGeometry x="352.81" y="670" width="50" height="20" as="geometry"/>
                </mxCell>
                <mxCell id="116" value="" style="shape=partialRectangle;whiteSpace=wrap;html=1;bottom=1;right=1;left=1;top=0;fillColor=none;routingCenterX=-0.5;fontSize=16;rotation=90;" vertex="1" parent="1">
                    <mxGeometry x="167.5" y="512.5" width="195" height="60" as="geometry"/>
                </mxCell>
                <mxCell id="117" value="False" style="text;html=1;align=center;verticalAlign=middle;resizable=0;points=[];autosize=1;strokeColor=none;fillColor=none;fontSize=16;" vertex="1" parent="1">
                    <mxGeometry x="240" y="640" width="50" height="20" as="geometry"/>
                </mxCell>
                <mxCell id="118" value="Update Pos(M)" style="shape=ext;double=1;rounded=0;whiteSpace=wrap;html=1;fontSize=16;" vertex="1" parent="1">
                    <mxGeometry x="169" y="760" width="120" height="30" as="geometry"/>
                </mxCell>
                <mxCell id="120" value="" style="shape=partialRectangle;whiteSpace=wrap;html=1;bottom=0;right=0;fillColor=none;fontSize=16;rotation=-90;" vertex="1" parent="1">
                    <mxGeometry x="175" y="700" width="170" height="50" as="geometry"/>
                </mxCell>
                <mxCell id="121" value="N" style="text;html=1;align=center;verticalAlign=middle;resizable=0;points=[];autosize=1;strokeColor=none;fillColor=none;fontSize=16;" vertex="1" parent="1">
                    <mxGeometry x="250" y="790" width="30" height="20" as="geometry"/>
                </mxCell>
                <mxCell id="122" value="" style="line;strokeWidth=2;direction=south;html=1;fontSize=16;" vertex="1" parent="1">
                    <mxGeometry x="350" y="850" width="10" height="80" as="geometry"/>
                </mxCell>
                <mxCell id="123" value="Y" style="text;html=1;align=center;verticalAlign=middle;resizable=0;points=[];autosize=1;strokeColor=none;fillColor=none;fontSize=16;" vertex="1" parent="1">
                    <mxGeometry x="355" y="860" width="30" height="20" as="geometry"/>
                </mxCell>
                <mxCell id="124" value="Process Done" style="shape=ext;double=1;rounded=0;whiteSpace=wrap;html=1;fontSize=16;" vertex="1" parent="1">
                    <mxGeometry x="295" y="931" width="120" height="30" as="geometry"/>
                </mxCell>
                <mxCell id="125" value="Data Collect" style="text;html=1;align=center;verticalAlign=middle;resizable=0;points=[];autosize=1;strokeColor=none;fillColor=none;fontSize=16;" vertex="1" parent="1">
                    <mxGeometry x="490" y="950" width="100" height="20" as="geometry"/>
                </mxCell>
                <mxCell id="128" value="Loop" style="text;html=1;align=center;verticalAlign=middle;resizable=0;points=[];autosize=1;strokeColor=none;fillColor=none;fontSize=16;" vertex="1" parent="1">
                    <mxGeometry x="240" y="445" width="50" height="20" as="geometry"/>
                </mxCell>
                <mxCell id="129" value="Update Pos(T)" style="shape=ext;double=1;rounded=0;whiteSpace=wrap;html=1;fontSize=16;" vertex="1" parent="1">
                    <mxGeometry x="170" y="700" width="120" height="30" as="geometry"/>
                </mxCell>
            </root>
        </mxGraphModel>
    </diagram>
</mxfile>